<svg width="131" height="89" viewBox="0 0 131 89" fill="none" xmlns="http://www.w3.org/2000/svg">
<path d="M86.4506 1.94515L87.4248 0.970929L86.4506 -0.00329509L85.4763 0.97093L86.4506 1.94515ZM128.701 44.1953L129.675 45.1695L130.649 44.1953L129.675 43.2211L128.701 44.1953ZM86.4506 86.4455L85.4763 87.4197L86.4506 88.3939L87.4248 87.4197L86.4506 86.4455ZM44.2004 44.1953L43.2262 43.2211L42.252 44.1953L43.2262 45.1695L44.2004 44.1953ZM85.4763 2.91938L127.726 45.1695L129.675 43.2211L87.4248 0.970929L85.4763 2.91938ZM127.726 43.2211L85.4763 85.4712L87.4248 87.4197L129.675 45.1695L127.726 43.2211ZM87.4248 85.4712L45.1746 43.2211L43.2262 45.1695L85.4763 87.4197L87.4248 85.4712ZM45.1746 45.1695L87.4248 2.91938L85.4763 0.97093L43.2262 43.2211L45.1746 45.1695Z" fill="#0A9E66"/>
<path d="M44.1986 1.94515L45.1728 0.970929L44.1986 -0.00329509L43.2244 0.97093L44.1986 1.94515ZM86.4488 44.1953L87.423 45.1695L88.3972 44.1953L87.423 43.2211L86.4488 44.1953ZM44.1986 86.4455L43.2244 87.4197L44.1986 88.3939L45.1728 87.4197L44.1986 86.4455ZM1.94845 44.1953L0.974224 43.2211L0 44.1953L0.974224 45.1695L1.94845 44.1953ZM43.2244 2.91938L85.4745 45.1695L87.423 43.2211L45.1728 0.970929L43.2244 2.91938ZM85.4745 43.2211L43.2244 85.4712L45.1728 87.4197L87.423 45.1695L85.4745 43.2211ZM45.1728 85.4712L2.92267 43.2211L0.974224 45.1695L43.2244 87.4197L45.1728 85.4712ZM2.92267 45.1695L45.1728 2.91938L43.2244 0.97093L0.974224 43.2211L2.92267 45.1695Z" fill="#0A9E66"/>
</svg>
